<?xml version="1.0" encoding="UTF-8"?>
<svg width="120px" height="120px" viewBox="0 0 120 120" version="1.1" xmlns="http://www.w3.org/2000/svg" xmlns:xlink="http://www.w3.org/1999/xlink">
    <!-- Generator: Sketch 47.1 (45422) - http://www.bohemiancoding.com/sketch -->
    <title>control_life_icn</title>
    <desc>Created with Sketch.</desc>
    <defs></defs>
    <g id="Assets" stroke="none" stroke-width="1" fill="none" fill-rule="evenodd">
        <g id="control_life_icn">
            <g id="control-own-life-icon" transform="translate(16.000000, 0.000000)">
                <g id="Group-15">
                    <g id="Group" transform="translate(0.000000, 26.373626)" stroke="#000000" stroke-width="1.97999999">
                        <path d="M23.7650575,32.9462898 L23.7650575,66.1705383 L6.2523992,66.1705383 C4.55340996,66.1705383 3.11580369,64.862497 2.85442073,63.1620434 L0.371282613,36.6088054 C0.240591133,34.6467434 1.67819741,32.9462898 3.76926108,32.9462898 L23.7650575,32.9462898 Z" id="Shape"></path>
                        <path d="M23.7650575,66.1705383 L48.3350556,72.5799406 C51.0795767,73.3647654 53.9547893,73.6263736 56.8300018,73.6263736 L68.7229265,73.6263736 C71.9902135,73.6263736 74.7347345,71.2718993 75.3881919,68.1326002 L81.138617,35.6931765 C81.9227659,31.5074444 78.6554789,27.7141246 74.4733516,27.7141246 L58.2676081,27.7141246 C55.78447,27.7141246 54.2161722,25.2288462 55.1310126,23.005176 L58.1369166,16.3341655 C58.9210655,14.5029077 59.3131399,12.5408458 59.3131399,10.5787839 L59.1824485,5.21581461 C59.1824485,2.33812379 56.8300018,0.114453612 53.9547893,0.24525774 L53.9547893,0.24525774 C51.2102682,0.24525774 48.988513,2.59973205 48.988513,5.34661874 L48.988513,7.0470724 C48.988513,9.40154671 48.2043642,11.6252169 46.7667579,13.3256706 L33.436227,30.1994031 C32.1293122,31.8998567 30.16894,32.9462898 27.9471848,32.9462898 L23.7650575,32.9462898" id="Shape"></path>
                    </g>
                    <path d="M55,0.43377675 L55,16.0497397" id="Line-2" stroke="#B7B9BB" stroke-width="1.75999993" stroke-linecap="square"></path>
                    <path d="M32,6.59340659 L40.8,15.3846154" id="Line-2" stroke="#B7B9BB" stroke-width="1.75999993" stroke-linecap="square"></path>
                    <path d="M69.2,6.59340659 L78,15.3846154" id="Line-2" stroke="#B7B9BB" stroke-width="1.75999993" stroke-linecap="square" transform="translate(73.600000, 10.989011) scale(-1, 1) translate(-73.600000, -10.989011) "></path>
                </g>
            </g>
        </g>
    </g>
</svg>