<?xml version="1.0" encoding="utf-8"?>
<!-- Generator: Adobe Illustrator 16.0.0, SVG Export Plug-In . SVG Version: 6.00 Build 0)  -->
<!DOCTYPE svg PUBLIC "-//W3C//DTD SVG 1.1//EN" "http://www.w3.org/Graphics/SVG/1.1/DTD/svg11.dtd">
<svg version="1.1" id="Layer_1" xmlns="http://www.w3.org/2000/svg" xmlns:xlink="http://www.w3.org/1999/xlink" x="0px" y="0px"
	 width="1440px" height="551px" viewBox="0 0 1440 551" enable-background="new 0 0 1440 551" xml:space="preserve">
<title>header_bg</title>
<desc>Created with Sketch.</desc>
<g>
	<defs>
		<rect id="SVGID_1_" x="1" width="1440" height="551"/>
	</defs>
	<clipPath id="SVGID_2_">
		<use xlink:href="#SVGID_1_"  overflow="visible"/>
	</clipPath>
	<g clip-path="url(#SVGID_2_)">
		<defs>
			<filter id="Adobe_OpacityMaskFilter" filterUnits="userSpaceOnUse" x="1" y="0" width="1440" height="551">
				<feColorMatrix  type="matrix" values="1 0 0 0 0  0 1 0 0 0  0 0 1 0 0  0 0 0 1 0"/>
			</filter>
		</defs>
		<mask maskUnits="userSpaceOnUse" x="1" y="0" width="1440" height="551" id="mask0_1_">
			<path fill="#FFFFFF" filter="url(#Adobe_OpacityMaskFilter)" d="M1441,0H1v551h1440V0z"/>
		</mask>
		<g mask="url(#mask0_1_)">
			<path fill="#37B44E" d="M1441,0H1v551h1440V0z"/>
		</g>
		<path fill="#35A749" d="M129.638,455C-12.976,455-129,338.975-129,196.362h98.418c0,88.348,71.876,160.214,160.22,160.214
			c28.241,0,55.985-7.441,80.233-21.5c16.122-9.354,30.409-21.363,42.449-35.672l75.315,63.348
			c-19.372,23.046-42.371,42.371-68.38,57.454C220.019,442.97,175.197,455,129.638,455z"/>
		<path fill="#35A749" d="M252.27,93.278c-21.866-26.003-51.95-44.671-84.701-52.613L190.761-55
			c52.954,12.855,101.544,42.997,136.808,84.888L252.27,93.278z"/>
		<path fill="#35A749" d="M74.236,37.12c0,40.647-32.954,73.602-73.601,73.602c-40.652,0-73.601-32.955-73.601-73.602
			c0-40.647,32.949-73.601,73.601-73.601C41.282-36.481,74.236-3.528,74.236,37.12z"/>
	</g>
</g>
</svg>
